<svg xmlns="http://www.w3.org/2000/svg" viewBox="0 0 401.39 401.39"><defs><style>.cls-1{fill:#fff;}.cls-2{fill:#249f9f;}</style></defs><title>5ire-Logo</title><g id="Layer_2" data-name="Layer 2"><g id="Layer_1-2" data-name="Layer 1"><circle class="cls-1" cx="200.7" cy="200.7" r="200.7"/><polygon class="cls-2" points="259.9 302.42 259.9 302.41 259.89 302.41 259.9 302.42"/><path class="cls-2" d="M188.26,243c-13.94-11.44-29.63-14.12-46.13-6.85C125,243.74,116.8,257.84,116,276.38c-.11,2.49-.16,5-.24,7.47,0,.32,0,.64,0,1-.9,1.9-2.62.94-3.92,1q-11.14.17-22.29,0c-1,0-3.9,1.16-2.18-2.06,8.15-14.26,16.21-28.56,24.52-42.72,1.58-2.69,1.39-3.94-1.4-5.19-4-1.81-7.37-5-11.81-6.11l-35.4,61.59c-3.4,5.93-3.12,7.72,1.74,11.23l67.51.23c.12-8.8.08-17.6.38-26.39.37-10.74,4.93-19.21,14.74-24.14,9.55-4.81,19.27-4.33,27.66,2.14,11.54,8.89,22.43,18.63,33.59,28l2.86,2.3c-.78,2.33-2.71,1.1-4,1.11-19.3.15-38.6.18-57.91.24q0,8.28.05,16.58c36.44-.07,72.88-.2,109.32-.17h.71c-8-6.63-15.51-12.75-22.93-18.91C220.72,270,204.58,256.41,188.26,243Z"/><path class="cls-2" d="M338.48,292.08q-6.54-11.61-13-23.22l-1.75-2.94c-5.13-8.71-10.39-17.35-15.33-26.17-1.53-2.72-2.6-3-5.24-1.34-6.18,3.89-12.59,7.41-18.95,11-9.85,5.6-19.75,5.74-29.15-.72S242,233,243.74,221.78c1.4-8.87,3-17.7,4.55-26.55,1.06-6.14,2.14-12.28,3.26-18.68,1.94,1.29,2.45,2.93,3.26,4.34,7.31,12.65,14.56,25.34,21.92,38,2.16,3.7,3.38,9.49,6.88,10.44s7.3-3.76,11.21-5.48c2.94-1.29,2.82-2.62,1.31-5.18-6.7-11.27-13.18-22.68-19.71-34.07q-15-26.13-29.89-52.3L243,127.41c-2.46,14-4.83,27.32-7.13,40.65-2.88,16.69-5.77,33.38-8.51,50.09-3,18.22,2.49,33.45,17.68,44.12s31.27,10.87,47.43,1.82c7.87-4.4,7.88-4.47,12.45,3.53,3,5.32,6,10.72,8.93,16.08h0c.06,2,.06,2-2.13,2q-14.24,0-28.46,0c-6.66,0-13.33.1-20-.05-2.59-.06-3.53.73-3.4,3.38.2,4.13,0,8.28,0,13.35,25.21,0,50.42.24,75.63.38C341.11,299.45,341.6,297.64,338.48,292.08Z"/><path class="cls-2" d="M206.6,128.78c-4.9-6.37-11.57-10.39-18.42-14.17-1.65-.91-2.55-1.64-1.32-3.7,4.55-7.64,8.94-15.39,13.39-23.09,1.74.65,2.05,2,2.69,3.14,7.9,13.65,15.77,27.33,23.72,41,.66,1.14.74,3.86,3.34,2.18,4.25-2.76,9.26-4.35,12.76-8.26-.46-.68-1-1.34-1.38-2.06Q224,93.59,206.5,63.4c-3.47-6-8.19-6-11.66,0C184.71,81,174.71,98.56,164.47,116c-1.53,2.62-1.52,3.66,1.3,5.19,7.28,4,14.51,8.06,21.44,12.6,16.65,10.92,15.64,37-2.38,45.32-15.09,7-31.1,12-47.75,18.25,8.86-15.38,17.13-29.7,25.36-44,2.06-3.58,6.4-8.16,5.44-10.58-1.27-3.19-6.82-4.6-10.4-7-2.53-1.66-3.73-1.15-5.26,1.53Q126,183.15,99.56,228.81c30-11,60.29-21.36,89.95-33.25C216.19,184.87,224.13,151.6,206.6,128.78Z"/></g></g></svg>