<svg xmlns="http://www.w3.org/2000/svg" xmlns:xlink="http://www.w3.org/1999/xlink" viewBox="0 0 3014.28 1711.59"><defs><style>.cls-1{fill:none;}.cls-2{fill:#249f9f;}.cls-3{clip-path:url(#clip-path);}</style><clipPath id="clip-path"><polygon class="cls-1" points="1523.04 168.27 2072.4 384.99 2060.16 1212.27 1508.96 1449.87 944.16 1187.79 944.16 385.71 1523.04 168.27"/></clipPath></defs><title>blue-block-bg</title><g id="Layer_2" data-name="Layer 2"><g id="Layer_1-2" data-name="Layer 1"><line class="cls-2" x1="1508.28" y1="623.31" x2="3012" y2="5.55"/><rect class="cls-2" x="1447.31" y="308.43" width="1625.67" height="12" transform="translate(50.06 882.47) rotate(-22.33)"/><line class="cls-2" x1="2.28" y1="5.55" x2="1506" y2="623.31"/><rect class="cls-2" x="748.14" y="-498.4" width="12" height="1625.67" transform="translate(176.72 892.51) rotate(-67.67)"/><line class="cls-2" x1="1529.76" y1="1011.87" x2="2990.52" y2="1550.28"/><polygon class="cls-2" points="1532.36 1008.47 1527.16 1015.27 2987.92 1553.67 2993.12 1546.88 1532.36 1008.47"/><line class="cls-2" x1="13.58" y1="1484.46" x2="1494.7" y2="1004.88"/><polygon class="cls-2" points="16.04 1487.96 11.12 1480.96 1492.24 1001.38 1497.16 1008.38 16.04 1487.96"/><g class="cls-3"><image width="1664" height="1664" transform="translate(676.96 47.59)" xlink:href="../../../Pictures/blue-cube.png"/></g></g></g></svg>