<svg version="1.1" id="Layer_1" xmlns="http://www.w3.org/2000/svg" xmlns:xlink="http://www.w3.org/1999/xlink" x="0px" y="0px"
	 width="100%" viewBox="0 0 512 512" enable-background="new 0 0 512 512" xml:space="preserve">
<path fill="#5865F2" opacity="1.000000" stroke="none" 
	d="
M513.000000,299.000000 
	C513.000000,327.020905 513.000000,355.041779 512.717407,383.196472 
	C511.511139,385.134644 511.055756,387.609833 509.587799,388.634644 
	C499.998749,395.329041 490.557648,402.368042 480.372559,408.046783 
	C462.504517,418.009125 444.423798,427.692200 425.885406,436.317078 
	C411.565186,442.979492 396.408783,447.844513 381.471252,453.567200 
	C370.333862,439.496674 361.749359,424.759552 354.037018,409.505890 
	C353.624908,408.690857 355.356262,405.870483 356.684235,405.244293 
	C366.527557,400.602631 376.570679,396.386169 386.439423,391.796173 
	C389.564636,390.342651 392.350555,388.159729 395.621277,386.103394 
	C393.246674,384.177368 391.493408,382.733337 389.716370,381.319183 
	C387.274139,379.375824 384.910767,379.136078 381.850891,380.500824 
	C359.706451,390.377655 336.846527,397.789948 312.900299,402.281433 
	C294.737671,405.688110 276.484894,407.450043 258.155579,407.763672 
	C245.232666,407.984802 232.203247,406.538452 219.347931,404.864594 
	C206.626221,403.208160 193.789719,401.285187 181.498123,397.756409 
	C165.166687,393.067841 149.299042,386.753326 133.263687,381.048737 
	C126.601051,378.678528 123.001396,379.955872 118.540924,387.385956 
	C132.344604,394.002167 146.060944,400.576477 160.383118,407.441193 
	C153.624359,423.962372 143.147949,438.554199 132.923981,453.105560 
	C105.142998,444.316498 78.579880,434.289368 53.980133,419.876953 
	C37.303322,410.106445 21.209116,399.338867 4.912742,388.925842 
	C3.392873,387.954651 2.294221,386.324310 0.999998,385.000000 
	C1.000000,356.645782 1.000000,328.291534 1.380950,299.724548 
	C2.163973,298.830872 2.833597,298.184692 2.927206,297.463715 
	C4.000759,289.195129 4.555682,280.834198 6.091624,272.656189 
	C8.756696,258.466248 11.559859,244.271744 15.124925,230.288162 
	C21.150192,206.654694 29.495169,183.728745 40.210308,161.857925 
	C49.438812,143.021500 59.794731,124.706261 70.372543,106.580994 
	C73.561180,101.117218 76.069450,94.501579 83.185738,91.883537 
	C93.213844,88.194252 102.936417,83.672340 112.972649,80.007668 
	C136.319397,71.482727 160.290710,65.246567 185.471207,61.121578 
	C190.058640,70.320038 194.688080,79.602715 199.193863,88.637413 
	C237.928055,83.198479 276.332611,83.345291 314.916626,88.690201 
	C315.376770,87.894882 315.914368,87.086494 316.334229,86.221001 
	C319.816925,79.041847 323.169769,71.796173 326.836273,64.712639 
	C327.573639,63.288170 329.672241,61.346039 330.812469,61.544331 
	C340.568176,63.240906 350.473755,64.638428 359.903839,67.529900 
	C380.820984,73.943550 401.564545,80.955368 422.204865,88.217857 
	C427.524841,90.089745 434.048981,92.587486 436.845398,96.870476 
	C447.930847,113.848747 458.100739,131.459320 467.911194,149.221497 
	C473.077606,158.575409 477.312683,168.534866 481.062286,178.559769 
	C487.420593,195.559250 493.774902,212.620193 498.824036,230.034225 
	C505.180023,251.955582 509.479248,274.388885 511.095825,297.249786 
	C511.140045,297.874939 512.339355,298.418427 513.000000,299.000000 
M353.317657,226.991302 
	C349.308624,226.329208 345.239014,224.854828 341.301208,225.148346 
	C325.824738,226.301956 313.363007,233.564819 305.250519,246.663483 
	C290.898499,269.836731 294.409851,301.781281 317.377441,318.853668 
	C330.648224,328.718231 345.166901,330.361755 359.981842,323.369965 
	C378.784088,314.496399 390.258514,291.654724 387.145905,269.715240 
	C384.204315,248.981277 373.829498,234.560867 353.317657,226.991302 
M132.948914,250.580093 
	C126.715118,262.531799 125.429337,275.158600 128.016327,288.239075 
	C132.244125,309.616119 151.231613,329.290405 175.539627,327.117340 
	C189.181213,325.897827 199.225220,319.247009 206.981003,308.683563 
	C218.779007,292.614624 220.542068,274.903534 213.917755,256.415466 
	C207.591187,238.758347 189.075516,222.614960 167.076920,225.909454 
	C151.567352,228.232178 140.839340,236.645142 132.948914,250.580093 
z"/>
<path fill="#000000" opacity="1.000000" stroke="none" 
	d="
M513.000000,298.531342 
	C512.339355,298.418427 511.140045,297.874939 511.095825,297.249786 
	C509.479248,274.388885 505.180023,251.955582 498.824036,230.034225 
	C493.774902,212.620193 487.420593,195.559250 481.062286,178.559769 
	C477.312683,168.534866 473.077606,158.575409 467.911194,149.221497 
	C458.100739,131.459320 447.930847,113.848747 436.845398,96.870476 
	C434.048981,92.587486 427.524841,90.089745 422.204865,88.217857 
	C401.564545,80.955368 380.820984,73.943550 359.903839,67.529900 
	C350.473755,64.638428 340.568176,63.240906 330.812469,61.544331 
	C329.672241,61.346039 327.573639,63.288170 326.836273,64.712639 
	C323.169769,71.796173 319.816925,79.041847 316.334229,86.221001 
	C315.914368,87.086494 315.376770,87.894882 314.916626,88.690201 
	C276.332611,83.345291 237.928055,83.198479 199.193863,88.637413 
	C194.688080,79.602715 190.058640,70.320038 185.471207,61.121578 
	C160.290710,65.246567 136.319397,71.482727 112.972649,80.007668 
	C102.936417,83.672340 93.213844,88.194252 83.185738,91.883537 
	C76.069450,94.501579 73.561180,101.117218 70.372543,106.580994 
	C59.794731,124.706261 49.438812,143.021500 40.210308,161.857925 
	C29.495169,183.728745 21.150192,206.654694 15.124925,230.288162 
	C11.559859,244.271744 8.756696,258.466248 6.091624,272.656189 
	C4.555682,280.834198 4.000759,289.195129 2.927206,297.463715 
	C2.833597,298.184692 2.163973,298.830872 1.380950,299.255920 
	C1.000000,199.705841 1.000000,100.411674 1.000000,1.058757 
	C171.560181,1.058757 342.120392,1.058757 513.000000,1.058757 
	C513.000000,100.020668 513.000000,199.041672 513.000000,298.531342 
z"/>
<path fill="#000000" opacity="1.000000" stroke="none" 
	d="
M0.999998,385.468658 
	C2.294221,386.324310 3.392873,387.954651 4.912742,388.925842 
	C21.209116,399.338867 37.303322,410.106445 53.980133,419.876953 
	C78.579880,434.289368 105.142998,444.316498 132.923981,453.105560 
	C143.147949,438.554199 153.624359,423.962372 160.383118,407.441193 
	C146.060944,400.576477 132.344604,394.002167 118.540924,387.385956 
	C123.001396,379.955872 126.601051,378.678528 133.263687,381.048737 
	C149.299042,386.753326 165.166687,393.067841 181.498123,397.756409 
	C193.789719,401.285187 206.626221,403.208160 219.347931,404.864594 
	C232.203247,406.538452 245.232666,407.984802 258.155579,407.763672 
	C276.484894,407.450043 294.737671,405.688110 312.900299,402.281433 
	C336.846527,397.789948 359.706451,390.377655 381.850891,380.500824 
	C384.910767,379.136078 387.274139,379.375824 389.716370,381.319183 
	C391.493408,382.733337 393.246674,384.177368 395.621277,386.103394 
	C392.350555,388.159729 389.564636,390.342651 386.439423,391.796173 
	C376.570679,396.386169 366.527557,400.602631 356.684235,405.244293 
	C355.356262,405.870483 353.624908,408.690857 354.037018,409.505890 
	C361.749359,424.759552 370.333862,439.496674 381.471252,453.567200 
	C396.408783,447.844513 411.565186,442.979492 425.885406,436.317078 
	C444.423798,427.692200 462.504517,418.009125 480.372559,408.046783 
	C490.557648,402.368042 499.998749,395.329041 509.587799,388.634644 
	C511.055756,387.609833 511.511139,385.134644 512.717407,383.665131 
	C513.000000,426.975525 513.000000,469.951050 513.000000,512.963257 
	C342.454987,512.963257 171.909943,512.963257 1.000000,512.963257 
	C1.000000,470.646484 1.000000,428.291901 0.999998,385.468658 
z"/>
<path fill="#000000" opacity="1.000000" stroke="none" 
	d="
M353.732178,227.023773 
	C373.829498,234.560867 384.204315,248.981277 387.145905,269.715240 
	C390.258514,291.654724 378.784088,314.496399 359.981842,323.369965 
	C345.166901,330.361755 330.648224,328.718231 317.377441,318.853668 
	C294.409851,301.781281 290.898499,269.836731 305.250519,246.663483 
	C313.363007,233.564819 325.824738,226.301956 341.301208,225.148346 
	C345.239014,224.854828 349.308624,226.329208 353.732178,227.023773 
z"/>
<path fill="#000000" opacity="1.000000" stroke="none" 
	d="
M133.210220,250.302521 
	C140.839340,236.645142 151.567352,228.232178 167.076920,225.909454 
	C189.075516,222.614960 207.591187,238.758347 213.917755,256.415466 
	C220.542068,274.903534 218.779007,292.614624 206.981003,308.683563 
	C199.225220,319.247009 189.181213,325.897827 175.539627,327.117340 
	C151.231613,329.290405 132.244125,309.616119 128.016327,288.239075 
	C125.429337,275.158600 126.715118,262.531799 133.210220,250.302521 
z"/>
</svg>