<svg version="1.1" id="Layer_1" xmlns="http://www.w3.org/2000/svg" xmlns:xlink="http://www.w3.org/1999/xlink" x="0px" y="0px"
	 width="100%" viewBox="0 0 512 512" enable-background="new 0 0 512 512" xml:space="preserve">
<path fill="#24A2DF" opacity="1.000000" stroke="none" 
	d="
M289.000000,513.000000 
	C267.979095,513.000000 246.958206,513.000000 225.737885,512.626465 
	C220.511475,511.172974 215.524216,509.833405 210.450745,509.057617 
	C187.767212,505.589020 166.380569,498.073090 145.770844,488.272247 
	C125.646469,478.702209 107.122337,466.620209 90.339073,451.887512 
	C76.909187,440.098480 64.027176,427.774689 53.677509,413.136505 
	C45.884682,402.114594 37.988079,391.073914 31.356087,379.352234 
	C25.953133,369.802826 22.355673,359.231873 18.238176,348.842834 
	C21.228722,348.047882 23.938128,347.069885 26.648767,347.066467 
	C93.556091,346.981628 160.463547,347.006622 227.370972,346.993256 
	C238.021759,346.991119 248.672531,346.899078 259.648438,346.930725 
	C273.858368,356.406097 287.693085,365.874725 301.657257,375.148407 
	C306.062042,378.073700 310.603119,380.973419 315.445984,383.025391 
	C329.594696,389.020386 339.452179,384.330231 343.817383,369.627197 
	C345.730286,363.184113 346.929443,356.529114 348.955658,349.976349 
	C398.250214,349.986603 447.041840,349.990875 495.898560,350.368744 
	C490.667603,361.701752 485.639130,372.800751 480.012756,383.587860 
	C471.602936,399.711609 461.028961,414.519073 448.548676,427.615448 
	C437.077271,439.653107 424.750702,451.048706 411.762817,461.428253 
	C391.711029,477.453186 369.226593,489.521667 344.928375,498.050385 
	C327.251709,504.254913 309.342804,509.453491 290.566650,511.097687 
	C289.993317,511.147919 289.519958,512.340149 289.000000,513.000000 
z"/>
<path fill="#29AAEC" opacity="1.000000" stroke="none" 
	d="
M225.000000,0.999998 
	C246.020889,1.000000 267.041779,1.000000 288.199554,1.344258 
	C289.346588,2.122921 290.319641,2.780993 291.372864,2.955590 
	C298.439514,4.127049 305.630829,4.739495 312.581940,6.379861 
	C337.311127,12.215626 360.994263,20.789478 383.143951,33.505497 
	C399.461517,42.873314 414.905182,53.462021 428.565399,66.314468 
	C438.655853,75.808243 447.951508,86.206650 457.046539,96.683563 
	C468.673218,110.076828 477.895844,125.148613 485.424744,140.960648 
	C481.715759,140.615250 478.415710,140.039581 475.115448,140.038559 
	C329.758514,139.993927 184.401611,140.006607 39.044704,139.958160 
	C35.751797,139.957062 32.459095,139.332031 29.203520,138.646973 
	C30.808437,135.651596 32.464958,133.055450 33.929222,130.355057 
	C42.584347,114.393326 53.213100,99.775185 65.346245,86.373085 
	C73.335449,77.548332 82.269012,69.546608 91.079086,61.504307 
	C104.729599,49.043388 120.131607,38.917301 136.400284,30.343300 
	C163.582703,16.017487 192.363312,6.315656 223.079773,2.912925 
	C223.781876,2.835147 224.362640,1.662134 225.000000,0.999998 
z"/>
<path fill="#28A7E8" opacity="1.000000" stroke="none" 
	d="
M29.166296,138.998062 
	C32.459095,139.332031 35.751797,139.957062 39.044704,139.958160 
	C184.401611,140.006607 329.758514,139.993927 475.115448,140.038559 
	C478.415710,140.039581 481.715759,140.615250 485.584167,141.288361 
	C487.668365,144.860153 489.208221,148.055450 490.696381,151.274612 
	C501.267242,174.141098 507.993225,198.094254 511.080627,223.091660 
	C511.167603,223.796051 512.335876,224.366898 513.000000,225.000000 
	C513.000000,232.687576 513.000000,240.375168 512.531372,248.531372 
	C463.301483,248.997635 414.540314,248.995270 365.755096,248.558533 
	C367.652435,234.953262 369.712433,221.800644 371.455139,208.606140 
	C373.110504,196.072845 374.868561,183.526611 375.763977,170.927948 
	C376.464539,161.070923 372.620117,156.656799 363.670135,155.298370 
	C361.270386,154.934128 358.540253,155.021912 356.270569,155.801361 
	C339.726440,161.482880 323.011383,166.779572 306.822632,173.359833 
	C272.592590,187.273438 238.654678,201.905411 204.587677,216.220642 
	C194.794098,220.335968 184.968811,224.375793 174.830383,228.167297 
	C172.230667,227.589600 169.958862,227.039398 167.686600,227.037445 
	C112.124428,226.989594 56.562210,227.000015 1.000000,227.000000 
	C1.000000,226.250000 1.000000,225.500000 1.338390,224.708694 
	C2.104809,223.993210 2.791063,223.364899 2.920220,222.637650 
	C4.002225,216.545151 4.824323,210.403397 6.020511,204.334793 
	C10.535270,181.430161 18.248753,159.642563 29.166296,138.998062 
z"/>
<path fill="#27A5E4" opacity="1.000000" stroke="none" 
	d="
M1.000000,227.468658 
	C56.562210,227.000015 112.124428,226.989594 167.686600,227.037445 
	C169.958862,227.039398 172.230667,227.589600 174.586517,228.417862 
	C158.649246,235.898788 142.588715,242.757233 126.623665,249.831116 
	C118.594421,253.388763 110.527275,256.967712 102.919594,261.311707 
	C100.274498,262.822052 97.336830,266.750397 97.479744,269.416443 
	C97.632881,272.273041 101.161049,275.027405 103.427856,277.642975 
	C104.089127,278.406036 105.453827,278.604462 106.530739,278.955414 
	C119.698830,283.247223 132.814346,287.715759 146.075500,291.698975 
	C151.324936,293.275696 156.866577,294.251099 162.336838,294.645752 
	C174.630249,295.532745 184.818939,289.964508 194.678040,283.378998 
	C228.599670,260.720703 262.607452,238.191315 296.601196,215.641144 
	C298.113190,214.638153 299.750610,213.393143 301.436218,213.202271 
	C303.177185,213.005142 305.831757,213.408447 306.642578,214.563126 
	C307.455841,215.721268 307.057770,218.483963 306.173126,219.913971 
	C304.621033,222.422989 302.427155,224.592514 300.267731,226.659393 
	C280.049744,246.010941 259.740509,265.267334 239.553772,284.651367 
	C233.552734,290.413788 227.512772,296.199188 222.113617,302.507294 
	C216.537247,309.022400 216.962677,314.654938 222.933044,320.648560 
	C225.960693,323.688019 229.518021,326.250000 233.042892,328.734070 
	C241.739334,334.862640 250.555344,340.821503 259.323303,346.848572 
	C248.672531,346.899078 238.021759,346.991119 227.370972,346.993256 
	C160.463547,347.006622 93.556091,346.981628 26.648767,347.066467 
	C23.938128,347.069885 21.228722,348.047882 17.912613,348.660278 
	C10.481104,330.175873 4.991172,311.272491 2.923400,291.496704 
	C2.830388,290.607178 1.665590,289.829681 1.000002,289.000000 
	C1.000000,268.645782 1.000000,248.291550 1.000000,227.468658 
z"/>
<path fill="#26A5E3" opacity="1.000000" stroke="none" 
	d="
M365.779114,248.992905 
	C414.540314,248.995270 463.301483,248.997635 512.531372,249.000000 
	C513.000000,262.020905 513.000000,275.041779 512.634766,288.238586 
	C511.858765,289.092834 511.205933,289.727295 511.073822,290.456146 
	C509.337585,300.035370 508.264709,309.780426 505.835938,319.176392 
	C503.137939,329.613739 499.220123,339.735809 495.833435,349.995148 
	C447.041840,349.990875 398.250214,349.986603 348.976379,349.537628 
	C351.399841,332.404999 354.323792,315.720245 357.206116,299.028290 
	C360.085480,282.353577 362.923157,265.671661 365.779114,248.992905 
z"/>
<path fill="#000000" opacity="1.000000" stroke="none" 
	d="
M513.000000,224.531342 
	C512.335876,224.366898 511.167603,223.796051 511.080627,223.091660 
	C507.993225,198.094254 501.267242,174.141098 490.696381,151.274612 
	C489.208221,148.055450 487.668365,144.860153 485.993011,141.326111 
	C477.895844,125.148613 468.673218,110.076828 457.046539,96.683563 
	C447.951508,86.206650 438.655853,75.808243 428.565399,66.314468 
	C414.905182,53.462021 399.461517,42.873314 383.143951,33.505497 
	C360.994263,20.789478 337.311127,12.215626 312.581940,6.379861 
	C305.630829,4.739495 298.439514,4.127049 291.372864,2.955590 
	C290.319641,2.780993 289.346588,2.122921 288.668213,1.344258 
	C363.593719,1.000000 438.187408,1.000000 513.000000,1.000000 
	C513.000000,75.354088 513.000000,149.708389 513.000000,224.531342 
z"/>
<path fill="#000000" opacity="1.000000" stroke="none" 
	d="
M1.000002,289.468658 
	C1.665590,289.829681 2.830388,290.607178 2.923400,291.496704 
	C4.991172,311.272491 10.481104,330.175873 17.632050,348.931335 
	C22.355673,359.231873 25.953133,369.802826 31.356087,379.352234 
	C37.988079,391.073914 45.884682,402.114594 53.677509,413.136505 
	C64.027176,427.774689 76.909187,440.098480 90.339073,451.887512 
	C107.122337,466.620209 125.646469,478.702209 145.770844,488.272247 
	C166.380569,498.073090 187.767212,505.589020 210.450745,509.057617 
	C215.524216,509.833405 220.511475,511.172974 225.269226,512.626465 
	C150.406296,513.000000 75.812599,513.000000 1.000000,513.000000 
	C1.000000,438.645905 1.000000,364.291626 1.000002,289.468658 
z"/>
<path fill="#000000" opacity="1.000000" stroke="none" 
	d="
M495.898529,350.368744 
	C499.220123,339.735809 503.137939,329.613739 505.835938,319.176392 
	C508.264709,309.780426 509.337585,300.035370 511.073822,290.456146 
	C511.205933,289.727295 511.858765,289.092834 512.634766,288.707275 
	C513.000000,363.593719 513.000000,438.187408 513.000000,513.000000 
	C438.645905,513.000000 364.291626,513.000000 289.468658,513.000000 
	C289.519958,512.340149 289.993317,511.147919 290.566650,511.097687 
	C309.342804,509.453491 327.251709,504.254913 344.928375,498.050385 
	C369.226593,489.521667 391.711029,477.453186 411.762817,461.428253 
	C424.750702,451.048706 437.077271,439.653107 448.548676,427.615448 
	C461.028961,414.519073 471.602936,399.711609 480.012756,383.587860 
	C485.639130,372.800751 490.667603,361.701752 495.898529,350.368744 
z"/>
<path fill="#000000" opacity="1.000000" stroke="none" 
	d="
M29.203520,138.646973 
	C18.248753,159.642563 10.535270,181.430161 6.020511,204.334793 
	C4.824323,210.403397 4.002225,216.545151 2.920220,222.637650 
	C2.791063,223.364899 2.104809,223.993210 1.338390,224.333694 
	C1.000000,149.739456 1.000000,75.478920 1.000000,1.000000 
	C75.354088,1.000000 149.708389,1.000000 224.531342,0.999998 
	C224.362640,1.662134 223.781876,2.835147 223.079773,2.912925 
	C192.363312,6.315656 163.582703,16.017487 136.400284,30.343300 
	C120.131607,38.917301 104.729599,49.043388 91.079086,61.504307 
	C82.269012,69.546608 73.335449,77.548332 65.346245,86.373085 
	C53.213100,99.775185 42.584347,114.393326 33.929222,130.355057 
	C32.464958,133.055450 30.808437,135.651596 29.203520,138.646973 
z"/>
<path fill="#FEFFFF" opacity="1.000000" stroke="none" 
	d="
M365.755096,248.558533 
	C362.923157,265.671661 360.085480,282.353577 357.206116,299.028290 
	C354.323792,315.720245 351.399841,332.404999 348.473450,349.531647 
	C346.929443,356.529114 345.730286,363.184113 343.817383,369.627197 
	C339.452179,384.330231 329.594696,389.020386 315.445984,383.025391 
	C310.603119,380.973419 306.062042,378.073700 301.657257,375.148407 
	C287.693085,365.874725 273.858368,356.406097 259.648438,346.930695 
	C250.555344,340.821503 241.739334,334.862640 233.042892,328.734070 
	C229.518021,326.250000 225.960693,323.688019 222.933044,320.648560 
	C216.962677,314.654938 216.537247,309.022400 222.113617,302.507294 
	C227.512772,296.199188 233.552734,290.413788 239.553772,284.651367 
	C259.740509,265.267334 280.049744,246.010941 300.267731,226.659393 
	C302.427155,224.592514 304.621033,222.422989 306.173126,219.913971 
	C307.057770,218.483963 307.455841,215.721268 306.642578,214.563126 
	C305.831757,213.408447 303.177185,213.005142 301.436218,213.202271 
	C299.750610,213.393143 298.113190,214.638153 296.601196,215.641144 
	C262.607452,238.191315 228.599670,260.720703 194.678040,283.378998 
	C184.818939,289.964508 174.630249,295.532745 162.336838,294.645752 
	C156.866577,294.251099 151.324936,293.275696 146.075500,291.698975 
	C132.814346,287.715759 119.698830,283.247223 106.530739,278.955414 
	C105.453827,278.604462 104.089127,278.406036 103.427856,277.642975 
	C101.161049,275.027405 97.632881,272.273041 97.479744,269.416443 
	C97.336830,266.750397 100.274498,262.822052 102.919594,261.311707 
	C110.527275,256.967712 118.594421,253.388763 126.623665,249.831116 
	C142.588715,242.757233 158.649246,235.898788 174.914200,228.700806 
	C184.968811,224.375793 194.794098,220.335968 204.587677,216.220642 
	C238.654678,201.905411 272.592590,187.273438 306.822632,173.359833 
	C323.011383,166.779572 339.726440,161.482880 356.270569,155.801361 
	C358.540253,155.021912 361.270386,154.934128 363.670135,155.298370 
	C372.620117,156.656799 376.464539,161.070923 375.763977,170.927948 
	C374.868561,183.526611 373.110504,196.072845 371.455139,208.606140 
	C369.712433,221.800644 367.652435,234.953262 365.755096,248.558533 
z"/>
</svg>